<svg width="1200" height="630" viewBox="0 0 1200 630" fill="none" xmlns="https://www.w3.org/2000/svg">
  <defs>
    <!-- Background gradient -->
    <linearGradient id="bgGradient" x1="0%" y1="0%" x2="0%" y2="100%">
      <stop offset="0%" style="stop-color:#00A8CC;stop-opacity:1" />
      <stop offset="50%" style="stop-color:#0099CC;stop-opacity:1" />
      <stop offset="100%" style="stop-color:#0077BE;stop-opacity:1" />
    </linearGradient>
    
    <!-- Text shadow filter -->
    <filter id="textShadow" x="-50%" y="-50%" width="200%" height="200%">
      <feGaussianBlur in="SourceAlpha" stdDeviation="4"/>
      <feOffset dx="2" dy="2" result="offsetblur"/>
      <feComponentTransfer>
        <feFuncA type="linear" slope="0.8"/>
      </feComponentTransfer>
      <feMerge>
        <feMergeNode/>
        <feMergeNode in="SourceGraphic"/>
      </feMerge>
    </filter>
    
    <!-- Strong text shadow for better visibility -->
    <filter id="strongShadow" x="-50%" y="-50%" width="200%" height="200%">
      <feGaussianBlur in="SourceAlpha" stdDeviation="6"/>
      <feOffset dx="3" dy="3" result="offsetblur"/>
      <feComponentTransfer>
        <feFuncA type="linear" slope="0.9"/>
      </feComponentTransfer>
      <feMerge>
        <feMergeNode/>
        <feMergeNode in="SourceGraphic"/>
      </feMerge>
    </filter>
    
    <!-- Text background blur -->
    <filter id="backdropBlur" x="-50%" y="-50%" width="200%" height="200%">
      <feGaussianBlur in="SourceGraphic" stdDeviation="10"/>
    </filter>
  </defs>
  
  <!-- Background -->
  <rect width="1200" height="630" fill="url(#bgGradient)"/>
  
  <!-- Decorative circles (more subtle) -->
  <circle cx="150" cy="120" r="80" fill="#7DD3FC" opacity="0.15"/>
  <circle cx="1050" cy="500" r="100" fill="#BAE6FD" opacity="0.15"/>
  <circle cx="1100" cy="130" r="60" fill="#E0F2FE" opacity="0.12"/>
  <circle cx="950" cy="180" r="40" fill="#FFFFFF" opacity="0.1"/>
  
  <!-- Island illustration (left side, more refined) -->
  <ellipse cx="280" cy="460" rx="160" ry="90" fill="#F4E4C1"/>
  <ellipse cx="280" cy="450" rx="145" ry="80" fill="#FFE4B5"/>
  <ellipse cx="280" cy="485" rx="175" ry="70" fill="#7DD3FC" opacity="0.5"/>
  <ellipse cx="280" cy="495" rx="165" ry="55" fill="#BAE6FD" opacity="0.35"/>
  <ellipse cx="280" cy="505" rx="155" ry="35" fill="#FFFFFF" opacity="0.4"/>
  
  <!-- Palm tree (improved) -->
  <rect x="275" y="390" width="18" height="65" fill="#8B4513" rx="9"/>
  <rect x="276" y="391" width="16" height="63" fill="#A0522D" rx="8"/>
  
  <!-- Palm fronds (layered for depth) -->
  <path d="M284 390 L230 310 L250 310 L270 330 L284 350 L298 330 L318 310 L338 310 Z" fill="#22C55E" opacity="0.95"/>
  <path d="M284 390 L240 320 L260 320 L280 340 L284 360 L288 340 L308 320 L328 320 Z" fill="#16A34A" opacity="0.9"/>
  <path d="M284 390 L250 350 L270 350 L284 370 L298 350 L318 350 Z" fill="#15803D" opacity="0.85"/>
  
  <!-- Text background (semi-transparent overlay for better readability) -->
  <rect x="200" y="220" width="800" height="200" rx="20" fill="#000000" opacity="0.25"/>
  <rect x="200" y="220" width="800" height="200" rx="20" fill="url(#bgGradient)" opacity="0.3"/>
  
  <!-- Main title with emoji and text -->
  <g filter="url(#strongShadow)">
    <!-- Title background for better contrast -->
    <rect x="250" y="240" width="700" height="90" rx="15" fill="#000000" opacity="0.2"/>
    
    <text x="600" y="300" font-family="'Apple SD Gothic Neo', 'Malgun Gothic', '맑은 고딕', Arial, sans-serif" font-size="84" font-weight="900" fill="#FFFFFF" text-anchor="middle" letter-spacing="-1">
      🏝️ 몰디브 매치
    </text>
  </g>
  
  <!-- Subtitle with better visibility -->
  <g filter="url(#textShadow)">
    <text x="600" y="380" font-family="'Apple SD Gothic Neo', 'Malgun Gothic', '맑은 고딕', Arial, sans-serif" font-size="52" font-weight="700" fill="#FFFFFF" text-anchor="middle" letter-spacing="0">
      나의 몰디브 여행 성향 찾기
    </text>
  </g>
  
  <!-- Decorative elements (right side, more subtle) -->
  <circle cx="880" cy="180" r="10" fill="#FFFFFF" opacity="0.4"/>
  <circle cx="900" cy="200" r="8" fill="#FFFFFF" opacity="0.35"/>
  <circle cx="860" cy="210" r="9" fill="#FFFFFF" opacity="0.3"/>
  <circle cx="920" cy="220" r="7" fill="#FFFFFF" opacity="0.25"/>
  
  <!-- Wave pattern (bottom, more refined) -->
  <path d="M0 560 Q200 530 400 560 T800 560 T1200 560 L1200 630 L0 630 Z" fill="#FFFFFF" opacity="0.12"/>
  <path d="M0 570 Q150 545 300 570 T600 570 T900 570 T1200 570 L1200 630 L0 630 Z" fill="#FFFFFF" opacity="0.08"/>
  
  <!-- Additional decorative bubbles -->
  <circle cx="100" cy="300" r="5" fill="#FFFFFF" opacity="0.2"/>
  <circle cx="1100" cy="400" r="6" fill="#FFFFFF" opacity="0.2"/>
  <circle cx="50" cy="500" r="4" fill="#FFFFFF" opacity="0.15"/>
</svg>
